<svg width="27" height="25" viewBox="0 0 27 25" fill="none" xmlns="http://www.w3.org/2000/svg">
<path d="M15.976 12.5005H1.71997" stroke="#C3B5D2" stroke-width="1.782" stroke-miterlimit="10" stroke-linecap="round" stroke-linejoin="round"/>
<path d="M25.4798 12.5005H20.7278" stroke="#C3B5D2" stroke-width="1.782" stroke-miterlimit="10" stroke-linecap="round" stroke-linejoin="round"/>
<path d="M25.4799 4.18408H11.2239" stroke="#C3B5D2" stroke-width="1.782" stroke-miterlimit="10" stroke-linecap="round" stroke-linejoin="round"/>
<path d="M6.47197 4.18408H1.71997" stroke="#C3B5D2" stroke-width="1.782" stroke-miterlimit="10" stroke-linecap="round" stroke-linejoin="round"/>
<path d="M25.4799 20.8169H11.2239" stroke="#C3B5D2" stroke-width="1.782" stroke-miterlimit="10" stroke-linecap="round" stroke-linejoin="round"/>
<path d="M6.47197 20.8169H1.71997" stroke="#C3B5D2" stroke-width="1.782" stroke-miterlimit="10" stroke-linecap="round" stroke-linejoin="round"/>
<path d="M18.3518 14.8765C19.6641 14.8765 20.7278 13.8127 20.7278 12.5005C20.7278 11.1883 19.6641 10.1245 18.3518 10.1245C17.0396 10.1245 15.9758 11.1883 15.9758 12.5005C15.9758 13.8127 17.0396 14.8765 18.3518 14.8765Z" stroke="#C3B5D2" stroke-width="1.782" stroke-miterlimit="10" stroke-linecap="round" stroke-linejoin="round"/>
<path d="M8.84792 6.56011C10.1602 6.56011 11.2239 5.49633 11.2239 4.18411C11.2239 2.87188 10.1602 1.80811 8.84792 1.80811C7.5357 1.80811 6.47192 2.87188 6.47192 4.18411C6.47192 5.49633 7.5357 6.56011 8.84792 6.56011Z" stroke="#C3B5D2" stroke-width="1.782" stroke-miterlimit="10" stroke-linecap="round" stroke-linejoin="round"/>
<path d="M8.84792 23.1929C10.1602 23.1929 11.2239 22.1291 11.2239 20.8169C11.2239 19.5047 10.1602 18.4409 8.84792 18.4409C7.5357 18.4409 6.47192 19.5047 6.47192 20.8169C6.47192 22.1291 7.5357 23.1929 8.84792 23.1929Z" stroke="#C3B5D2" stroke-width="1.782" stroke-miterlimit="10" stroke-linecap="round" stroke-linejoin="round"/>
</svg>
